<svg viewBox="0 0 48 48"><path fill-rule="nonzero" d="M9.873 39.196a2 2 0 0 1-2.827 2.83A23.96 23.96 0 0 1 0 25.021C0 11.756 10.745 1 24 1s24 10.756 24 24.022a23.962 23.962 0 0 1-7.153 17.11 2 2 0 1 1-2.809-2.848A19.963 19.963 0 0 0 44 25.022C44 13.964 35.045 5 24 5S4 13.964 4 25.022c0 5.392 2.136 10.44 5.873 14.174zm5.815-5.88a2 2 0 1 1-2.747 2.908C9.808 33.264 8 29.174 8 24.804 8 16.068 15.17 9 24 9s16 7.069 16 15.803c0 4.426-1.854 8.562-5.056 11.529a2 2 0 0 1-2.719-2.934C34.62 31.178 36 28.1 36 24.803 36 18.291 30.634 13 24 13s-12 5.29-12 11.803c0 3.257 1.345 6.3 3.688 8.514zm5.343-5.3a2 2 0 0 1-3.033 2.608A8.297 8.297 0 0 1 16 25.201C16 20.686 19.567 17 24 17s8 3.686 8 8.201a8.29 8.29 0 0 1-2.198 5.647 2 2 0 1 1-2.935-2.718A4.291 4.291 0 0 0 28 25.201C28 22.867 26.194 21 24 21s-4 1.867-4 4.201c0 1.059.371 2.049 1.03 2.815z"/></svg>