<svg viewBox="0 0 41 34"><path fill-rule="nonzero" d="M27.335 4.5c.28 0 .507.224.507.5s-.227.5-.507.5H4.045C2.645 5.5 1.512 6.62 1.512 8v22c0 1.38 1.133 2.5 2.531 2.5H32.4c1.398 0 2.531-1.12 2.531-2.5V13c0-.276.227-.5.507-.5s.506.224.506.5v17c0 1.933-1.587 3.5-3.544 3.5H4.044C2.087 33.5.5 31.933.5 30V8c0-1.933 1.587-3.5 3.544-3.5zm-6.124 12.554a2.552 2.552 0 0 1 4.148 0l5.43 7.66a.496.496 0 0 1-.125.696.51.51 0 0 1-.705-.123l-5.43-7.66a1.531 1.531 0 0 0-2.489 0l-5.429 7.66a.508.508 0 0 1-.12.12l.065-.055a.501.501 0 0 1-.041.037l-.024.018a.517.517 0 0 1-.457.067.51.51 0 0 1-.25-.183l.056.064a.5.5 0 0 1-.037-.04l-.019-.024-3.415-4.722a1.531 1.531 0 0 0-2.472 0l-3.415 4.722a.51.51 0 0 1-.707.116.496.496 0 0 1-.117-.698l3.415-4.721a2.552 2.552 0 0 1 4.12 0l2.999 4.146zM10.12 11.5c1.397 0 2.53 1.12 2.53 2.5s-1.133 2.5-2.53 2.5c-1.399 0-2.532-1.12-2.532-2.5s1.133-2.5 2.531-2.5zm0 1A1.51 1.51 0 0 0 8.6 14c0 .828.68 1.5 1.52 1.5a1.51 1.51 0 0 0 1.518-1.5c0-.828-.68-1.5-1.519-1.5zM35.442.5a.5.5 0 0 1 .5.5v4H40a.5.5 0 1 1 0 1h-4.057v4a.5.5 0 0 1-.5.5h-.013a.5.5 0 0 1-.5-.5V6h-4.057a.5.5 0 1 1 0-1h4.057V1a.5.5 0 0 1 .5-.5h.013z"/></svg>