<svg viewBox="0 0 48 48"><path fill-rule="nonzero" d="M42 15a2 2 0 0 1 2 2v22.5a6.5 6.5 0 0 1-6.5 6.5h-27A6.5 6.5 0 0 1 4 39.5V17a2 2 0 1 1 4 0v22.5a2.5 2.5 0 0 0 2.5 2.5h27a2.5 2.5 0 0 0 2.5-2.5V17a2 2 0 0 1 2-2zm-24 2.523a2 2 0 0 1 2 2V36a2 2 0 1 1-4 0V19.523a2 2 0 0 1 2-2zm12 0a2 2 0 0 1 2 2V36a2 2 0 1 1-4 0V19.523a2 2 0 0 1 2-2zM28.98 2c1.987 0 3.749 1.318 4.144 3.23l.02.117.24 1.653H44a2 2 0 1 1 0 4H31.654a2 2 0 0 1-1.98-1.713l-.47-3.245c-.016 0-.09-.042-.224-.042H17.908c-.133 0-.207.042-.223.042l-.471 3.245A2 2 0 0 1 15.234 11H4a2 2 0 1 1 0-4h9.504l.24-1.653.02-.117C14.16 3.318 15.922 2 17.909 2z"/></svg>