<svg viewBox="0 0 48 48"><path fill-rule="nonzero" d="M43 17h1.907a3 3 0 0 1 2.903 3.755l-5.72 22A3 3 0 0 1 39.187 45H3.507a3 3 0 0 1-2.96-3.487A5.98 5.98 0 0 1 0 39.005V9.995A5.993 5.993 0 0 1 5.997 4h8.565c1.68 0 3.713.93 4.814 2.198l2.98 3.432h14.64A6 6 0 0 1 43 15.625V17zm-4 0v-1.375a2 2 0 0 0-2.005-1.995h-15.55a2 2 0 0 1-1.51-.688l-3.58-4.122c-.342-.394-1.274-.82-1.793-.82H5.997A1.993 1.993 0 0 0 4 9.995v17.203l1.911-7.903A3 3 0 0 1 8.827 17H39zM4.862 40.65c.32.22.71.35 1.128.35h32.423l5.2-20H9.614L4.862 40.65z"/></svg>