<svg viewBox="0 0 32 32"><path d="M29.575 9.661H2.424c-.701 0-1.27.428-1.27.957v10.764c0 .528.569.957 1.27.957h27.151c.701 0 1.27-.428 1.27-.957V10.618c0-.529-.569-.957-1.27-.957zM11.877 20.333h-1.135v-3.587H6.875v3.587h-1.1v-8.08h1.1v3.429h3.867v-3.429h1.135v8.08zm4.789.119c-2.27-.132-3.453-1.498-3.548-4.099.118-2.68 1.313-4.086 3.583-4.218 2.199.158 3.381 1.564 3.547 4.218-.119 2.601-1.312 3.967-3.582 4.099zm10.358-7.174h-2.483v7.055h-1.1v-7.055h-2.519v-1.025h6.101v1.025z"/><path d="M16.666 13.199c-1.49.132-2.283 1.182-2.377 3.153.071 1.945.852 2.982 2.341 3.114 1.513-.079 2.306-1.116 2.377-3.114-.071-1.971-.851-3.022-2.341-3.153z"/></svg>