<svg viewBox="0 0 55 32"><path d="M48.499 2.96h-.907a.34.34 0 0 0-.302.232l-8.653 28.576c-.039.128.034.232.163.232h.907a.34.34 0 0 0 .302-.232l8.653-28.576c.038-.128-.034-.232-.163-.232zM43.415 9.412h.907a.34.34 0 0 0 .302-.232l1.099-3.647c.039-.128-.034-.232-.163-.232h-.907a.34.34 0 0 0-.302.232L43.252 9.18c-.038.128.034.232.163.232zM50.727 2.96h-.907a.34.34 0 0 0-.302.232l-8.653 28.576c-.039.128.034.232.163.232h.907a.34.34 0 0 0 .302-.232L50.89 3.192c.038-.128-.034-.232-.163-.232zM52.955 2.96h-.907a.34.34 0 0 0-.302.232l-8.653 28.576c-.038.128.034.232.163.232h.907a.338.338 0 0 0 .302-.232l8.653-28.576c.039-.128-.034-.232-.163-.232zM38.814.032h-.907a.34.34 0 0 0-.302.232L29.85 26.056c-.039.128.034.232.163.232h.907a.34.34 0 0 0 .302-.232L38.977.264c.038-.128-.034-.232-.163-.232zM33.73 6.484h.907a.34.34 0 0 0 .302-.232l1.099-3.647c.039-.128-.034-.232-.163-.232h-.907a.338.338 0 0 0-.302.232l-1.099 3.647c-.039.128.034.232.162.232zM41.042.032h-.907a.34.34 0 0 0-.302.232l-7.755 25.792c-.039.128.034.232.163.232h.907a.34.34 0 0 0 .302-.232L41.205.264c.038-.128-.034-.232-.163-.232zM43.27.032h-.907a.34.34 0 0 0-.302.232l-7.755 25.792c-.038.128.034.232.163.232h.907a.34.34 0 0 0 .302-.232L43.433.264c.038-.128-.034-.232-.163-.232zM30.497 4.705H19.272l-1.904 3.608h7.135L22.7 11.73l-1.011-2.436h-3.745l2.66 6.407-5.465 10.355h4.09l3.175-6.017 2.498 6.017h3.745l-4.146-9.989z"/><path d="M12.51 15.563l5.73-10.857H4.27l1.498 3.608h6.636l-1.621 3.071-.863-2.09H6.175l2.509 6.067-5.645 10.696h3.932l3.44-6.519 2.696 6.519 2.096-3.972z"/></svg>