<svg viewBox="0 0 28 28"><path fill-rule="nonzero" d="M21.677 5.18l-.712.711c-.464.466-1.13.716-1.797.716-.38 0-.754-.081-1.088-.247l-1.567-.645c-.976-.333-1.705-1.342-1.705-2.376V2.333h-1.616V3.34c0 1.034-.726 2.043-1.704 2.376l-1.569.645a2.447 2.447 0 0 1-1.088.247c-.667 0-1.33-.25-1.792-.713l-.716-.714-1.142 1.142.711.713c.733.732.929 1.957.468 2.883l-.645 1.57c-.333.977-1.34 1.705-2.377 1.705l-1.004-.001v1.616h1.007c1.034.002 2.04.73 2.372 1.705l.648 1.57c.458.926.263 2.154-.469 2.883l-.714.712 1.145 1.144.713-.713c.464-.464 1.126-.713 1.791-.713.38 0 .755.081 1.09.25l1.57.643c.979.334 1.705 1.342 1.705 2.376v1.002h1.616v-1.002c0-1.034.728-2.041 1.705-2.375l1.569-.645c.335-.168.71-.25 1.091-.25.665 0 1.328.25 1.796.715l.708.712 1.144-1.144-.715-.713c-.73-.73-.924-1.957-.466-2.882l.646-1.57c.335-.976 1.344-1.704 2.376-1.704h1.004v-1.617h-1.004c-1.034 0-2.041-.728-2.376-1.705l-.645-1.57c-.459-.923-.264-2.147.466-2.882l.714-.712-1.144-1.144zm-4.535-3.026V3.34a.39.39 0 0 0 .122.166l.098.036 1.651.68.108.05c.12.003.185-.022.192-.028l.842-.841a2.155 2.155 0 0 1 1.522-.629c.567 0 1.115.222 1.524.63l1.396 1.394c.842.84.842 2.208 0 3.05l-.837.836a.376.376 0 0 0-.03.194l.051.108.68 1.654.034.095c.01.032.135.124.167.124h1.185c1.187 0 2.153.967 2.153 2.155v1.975a2.157 2.157 0 0 1-2.153 2.155h-1.185a.391.391 0 0 0-.167.123l-.034.095-.68 1.653-.05.108a.394.394 0 0 0 .026.193l.84.839c.842.84.842 2.208.001 3.048L23.2 24.6a2.158 2.158 0 0 1-3.05-.003l-.832-.837a.335.335 0 0 0-.145-.031.592.592 0 0 0-.157.055l-1.654.68-.096.034a.384.384 0 0 0-.124.167v1.181A2.158 2.158 0 0 1 14.988 28h-1.974a2.158 2.158 0 0 1-2.156-2.154v-1.181a.375.375 0 0 0-.121-.166l-.097-.035-1.656-.68-.114-.054a.406.406 0 0 0-.183.029l-.841.84c-.409.408-.957.63-1.523.63a2.148 2.148 0 0 1-1.523-.63L3.4 23.2a2.163 2.163 0 0 1 .003-3.045l.842-.84a.385.385 0 0 0 .026-.194l-.05-.104-.681-1.653-.037-.101a.382.382 0 0 0-.162-.12H2.155A2.159 2.159 0 0 1 0 14.986v-1.973c0-1.188.967-2.155 2.156-2.155l1.184.002a.378.378 0 0 0 .165-.122l.035-.098.68-1.654.052-.11a.362.362 0 0 0-.03-.191l-.838-.84a2.156 2.156 0 0 1 0-3.046L4.8 3.403a2.15 2.15 0 0 1 1.523-.63 2.15 2.15 0 0 1 1.522.629l.845.842a.33.33 0 0 0 .141.03.582.582 0 0 0 .155-.054l1.653-.68.1-.035a.38.38 0 0 0 .119-.166V2.154A2.16 2.16 0 0 1 13.014 0h1.974a2.16 2.16 0 0 1 2.154 2.154zm-3.137 16.513A4.668 4.668 0 1 1 18.674 14a4.668 4.668 0 0 1-4.669 4.667zm0-2.334a2.334 2.334 0 1 0 .001-4.667 2.334 2.334 0 0 0 0 4.667z"/></svg>