<!-- Generated by IcoMoon.io -->
<svg version="1.1" xmlns="http://www.w3.org/2000/svg" width="32" height="32" viewBox="0 0 32 32">
<title>append</title>
<path d="M14.591 7l0 0-8.75 8.75c-2.527 2.527-2.527 6.625 0 9.152s6.625 2.527 9.152 0l11.369-11.369c1.687-1.687 1.687-4.422 0-6.108s-4.422-1.687-6.108 0l-10.989 10.989c-0.852 0.852-0.852 2.234 0 3.087s2.234 0.852 3.087 0l8.37-8.369c0.386-0.363 0.992-0.355 1.369 0.021s0.384 0.984 0.021 1.369l0 0-8.369 8.369c-1.621 1.621-4.249 1.621-5.869 0s-1.621-4.249 0-5.869l10.989-10.989c2.455-2.455 6.436-2.455 8.891 0s2.455 6.436 0 8.891l-11.369 11.369c-3.296 3.296-8.639 3.296-11.934 0s-3.296-8.639 0-11.934l8.75-8.749c0.386-0.363 0.992-0.356 1.369 0.021s0.384 0.984 0.021 1.369z"></path>
</svg>
