<!-- Generated by IcoMoon.io -->
<svg version="1.1" xmlns="http://www.w3.org/2000/svg" width="32" height="32" viewBox="0 0 32 32">
<title>calendar</title>
<path d="M10.667 26c-0.737 0-1.333-0.597-1.333-1.333s0.597-1.333 1.333-1.333h10.667c0.737 0 1.333 0.597 1.333 1.333s-0.597 1.333-1.333 1.333h-10.667zM10.667 20.667c-0.737 0-1.333-0.597-1.333-1.333s0.597-1.333 1.333-1.333h10.667c0.737 0 1.333 0.597 1.333 1.333s-0.597 1.333-1.333 1.333h-10.667zM22.667 6.667c0 0.737-0.597 1.333-1.333 1.333s-1.333-0.597-1.333-1.333v-5.333c0-0.737 0.597-1.333 1.333-1.333s1.333 0.597 1.333 1.333v5.333zM12 6.667c0 0.737-0.597 1.333-1.333 1.333s-1.333-0.597-1.333-1.333v-5.333c0-0.737 0.597-1.333 1.333-1.333s1.333 0.597 1.333 1.333v5.333zM14.667 5.333c-0.737 0-1.333-0.597-1.333-1.333s0.597-1.333 1.333-1.333h2.667c0.737 0 1.333 0.597 1.333 1.333s-0.597 1.333-1.333 1.333h-2.667zM2.667 14.667v13.463c0 0.675 0.509 1.203 1.111 1.203h24.444c0.603 0 1.111-0.528 1.111-1.203v-13.463h-26.667zM2.667 12h26.667v-5.463c0-0.675-0.509-1.203-1.111-1.203h-2.883c-0.737 0-1.333-0.597-1.333-1.333s0.597-1.333 1.333-1.333h2.883c2.098 0 3.778 1.743 3.778 3.87v21.593c0 2.127-1.68 3.87-3.778 3.87h-24.444c-2.098 0-3.778-1.743-3.778-3.87v-21.593c0-2.127 1.68-3.87 3.778-3.87h2.899c0.737 0 1.333 0.597 1.333 1.333s-0.597 1.333-1.333 1.333h-2.899c-0.603 0-1.111 0.528-1.111 1.203v5.463z"></path>
</svg>
