<!-- Generated by IcoMoon.io -->
<svg version="1.1" xmlns="http://www.w3.org/2000/svg" width="32" height="32" viewBox="0 0 32 32">
<title>close</title>
<path d="M14.114 16l-12.391-12.391c-0.521-0.521-0.521-1.365 0-1.886s1.365-0.521 1.886 0l12.391 12.391 12.391-12.391c0.521-0.521 1.365-0.521 1.886 0s0.521 1.365 0 1.886l-12.391 12.391 12.391 12.391c0.521 0.521 0.521 1.365 0 1.886s-1.365 0.521-1.886 0l-12.391-12.391-12.391 12.391c-0.521 0.521-1.365 0.521-1.886 0s-0.521-1.365 0-1.886l12.391-12.391z"></path>
</svg>
