<!-- Generated by IcoMoon.io -->
<svg version="1.1" xmlns="http://www.w3.org/2000/svg" width="32" height="32" viewBox="0 0 32 32">
<title>copy</title>
<path d="M4.364 10.667c-0.536 0-0.97 0.434-0.97 0.97v0 16.485c0 0.536 0.434 0.97 0.97 0.97v0h13.576c0.536 0 0.97-0.434 0.97-0.97v0-16.485c0-0.536-0.434-0.97-0.97-0.97v0h-13.576zM4.364 8.727h13.576c1.607 0 2.909 1.302 2.909 2.909v0 16.485c0 1.607-1.302 2.909-2.909 2.909v0h-13.576c-1.607 0-2.909-1.302-2.909-2.909v0-16.485c0-1.607 1.302-2.909 2.909-2.909v0z"></path>
<path d="M13.091 9.175c0 0.536-0.434 0.97-0.97 0.97s-0.97-0.434-0.97-0.97v0-4.7c0-1.403 1.147-2.536 2.556-2.536h14.282c1.409 0 2.556 1.133 2.556 2.536v17.232c0 1.403-1.147 2.536-2.556 2.536h-2.381c-0.536 0-0.97-0.434-0.97-0.97s0.434-0.97 0.97-0.97h2.381c0.003 0 0.006 0 0.010 0 0.332 0 0.601-0.266 0.607-0.596v-17.232c-0.006-0.331-0.275-0.596-0.607-0.596-0.003 0-0.007 0-0.010 0h-14.281c-0.003-0-0.006-0-0.010-0-0.332 0-0.601 0.266-0.607 0.596v4.701z"></path>
</svg>
