<!-- Generated by IcoMoon.io -->
<svg version="1.1" xmlns="http://www.w3.org/2000/svg" width="32" height="32" viewBox="0 0 32 32">
<title>fail</title>
<path d="M16 29.333c7.364 0 13.333-5.97 13.333-13.333s-5.97-13.333-13.333-13.333c-7.364 0-13.333 5.97-13.333 13.333s5.97 13.333 13.333 13.333zM16 32c-8.837 0-16-7.163-16-16s7.163-16 16-16c8.837 0 16 7.163 16 16s-7.163 16-16 16z"></path>
<path d="M16 14.114l4.391-4.391c0.521-0.521 1.365-0.521 1.886 0s0.521 1.365 0 1.886l-4.391 4.391 4.391 4.391c0.521 0.521 0.521 1.365 0 1.886s-1.365 0.521-1.886 0l-4.391-4.391-4.391 4.391c-0.521 0.521-1.365 0.521-1.886 0s-0.521-1.365 0-1.886l4.391-4.391-4.391-4.391c-0.521-0.521-0.521-1.365 0-1.886s1.365-0.521 1.886 0l4.391 4.391z"></path>
</svg>
