<!-- Generated by IcoMoon.io -->
<svg version="1.1" xmlns="http://www.w3.org/2000/svg" width="32" height="32" viewBox="0 0 32 32">
<title>filter</title>
<path d="M5.164 3.265l6.098 10.918c0.109 0.195 0.166 0.414 0.166 0.637v8.455c0 0.721-0.585 1.306-1.306 1.306s-1.306-0.585-1.306-1.306v-8.115l-7.017-12.564c-0.486-0.871 0.143-1.943 1.14-1.943h26.119c0.997 0 1.626 1.072 1.14 1.943l-7.017 12.564v15.534c0 0.721-0.585 1.306-1.306 1.306s-1.306-0.585-1.306-1.306v-15.874c0-0.223 0.057-0.442 0.166-0.637l6.098-10.918h-21.668z"></path>
</svg>
