<!-- Generated by IcoMoon.io -->
<svg version="1.1" xmlns="http://www.w3.org/2000/svg" width="32" height="32" viewBox="0 0 32 32">
<title>loading</title>
<path d="M16 32c-2.159 0-4.256-0.422-6.228-1.256-1.906-0.806-3.616-1.962-5.084-3.431s-2.625-3.178-3.431-5.084c-0.834-1.972-1.256-4.069-1.256-6.228 0-0.622 0.503-1.125 1.125-1.125s1.125 0.503 1.125 1.125c0 1.856 0.362 3.656 1.081 5.353 0.694 1.637 1.684 3.109 2.947 4.372s2.734 2.256 4.372 2.947c1.694 0.716 3.494 1.078 5.35 1.078s3.656-0.363 5.353-1.081c1.637-0.694 3.109-1.684 4.372-2.947s2.256-2.734 2.947-4.372c0.716-1.694 1.078-3.494 1.078-5.35s-0.363-3.656-1.081-5.353c-0.694-1.637-1.684-3.106-2.947-4.372-1.262-1.263-2.734-2.256-4.372-2.947-1.694-0.716-3.494-1.078-5.35-1.078-0.622 0-1.125-0.503-1.125-1.125s0.503-1.125 1.125-1.125c2.159 0 4.256 0.422 6.228 1.256 1.906 0.806 3.616 1.962 5.084 3.431s2.622 3.181 3.428 5.084c0.834 1.972 1.256 4.069 1.256 6.228s-0.422 4.256-1.256 6.228c-0.803 1.906-1.959 3.616-3.428 5.084s-3.181 2.622-5.084 3.428c-1.972 0.837-4.069 1.259-6.228 1.259z"></path>
</svg>
