<!-- Generated by IcoMoon.io -->
<svg version="1.1" xmlns="http://www.w3.org/2000/svg" width="32" height="32" viewBox="0 0 32 32">
<title>refresh</title>
<path d="M28.342 3.442c0-0.631 0.511-1.142 1.142-1.142s1.142 0.511 1.142 1.142v0 6.335c0 1.225-1.666 1.59-2.18 0.48-2.227-4.738-6.959-7.959-12.444-7.959-7.571 0-13.708 6.137-13.708 13.708s6.137 13.708 13.708 13.708c5.349 0 9.983-3.064 12.241-7.532l0.036-0.078c0.192-0.379 0.578-0.634 1.024-0.634 0.631 0 1.143 0.512 1.143 1.143 0 0.186-0.044 0.361-0.123 0.516l0.003-0.007c-2.677 5.305-8.083 8.879-14.324 8.879-8.832 0-15.992-7.16-15.992-15.992s7.16-15.992 15.992-15.992c4.955 0 9.383 2.253 12.317 5.791l0.021 0.027v-2.392z"></path>
</svg>
