<!-- Generated by IcoMoon.io -->
<svg version="1.1" xmlns="http://www.w3.org/2000/svg" width="32" height="32" viewBox="0 0 32 32">
<title>search</title>
<path d="M14.667 29.333c-8.1 0-14.667-6.567-14.667-14.667s6.566-14.667 14.667-14.667c8.1 0 14.667 6.566 14.667 14.667s-6.567 14.667-14.667 14.667zM14.667 26.667c6.627 0 12-5.373 12-12s-5.373-12-12-12c-6.627 0-12 5.373-12 12s5.373 12 12 12z"></path>
<path d="M23.057 24.943c-0.521-0.521-0.521-1.365 0-1.886s1.365-0.521 1.886 0l6.667 6.667c0.521 0.521 0.521 1.365 0 1.886s-1.365 0.521-1.886 0l-6.667-6.667z"></path>
</svg>
