<!-- Generated by IcoMoon.io -->
<svg version="1.1" xmlns="http://www.w3.org/2000/svg" width="32" height="32" viewBox="0 0 32 32">
<title>sorting</title>
<path d="M10.366 32v0c-0.349 0.001-0.698-0.135-0.96-0.406l-9.030-9.333c-0.512-0.529-0.498-1.373 0.031-1.885s1.373-0.498 1.885 0.031l6.742 6.968v-26.041c0-0.736 0.597-1.333 1.333-1.333s1.333 0.597 1.333 1.333v29.333c0 0.736-0.597 1.333-1.333 1.333h-0.001zM21.634 0v0c0.349-0.001 0.698 0.135 0.96 0.406l9.030 9.333c0.512 0.529 0.498 1.373-0.031 1.885s-1.373 0.498-1.885-0.031l-6.742-6.968v26.041c0 0.736-0.597 1.333-1.333 1.333s-1.333-0.597-1.333-1.333v-29.333c0-0.736 0.597-1.333 1.333-1.333h0.001z"></path>
</svg>
