<!-- Generated by IcoMoon.io -->
<svg version="1.1" xmlns="http://www.w3.org/2000/svg" width="32" height="32" viewBox="0 0 32 32">
<title>warning</title>
<path d="M16 29.333c7.364 0 13.333-5.97 13.333-13.333s-5.97-13.333-13.333-13.333c-7.364 0-13.333 5.97-13.333 13.333s5.97 13.333 13.333 13.333zM16 32c-8.837 0-16-7.163-16-16s7.163-16 16-16c8.837 0 16 7.163 16 16s-7.163 16-16 16z"></path>
<path d="M14.667 8c0-0.736 0.597-1.333 1.333-1.333s1.333 0.597 1.333 1.333v10.687c0 0.736-0.597 1.333-1.333 1.333s-1.333-0.597-1.333-1.333v-10.687z"></path>
<path d="M14.667 22.667c0-0.736 0.597-1.333 1.333-1.333s1.333 0.597 1.333 1.333v1.333c0 0.736-0.597 1.333-1.333 1.333s-1.333-0.597-1.333-1.333v-1.333z"></path>
</svg>
