<?xml version="1.0" encoding="UTF-8"?>
<svg viewBox="0 0 28 28" version="1.1" xmlns="http://www.w3.org/2000/svg" xmlns:xlink="http://www.w3.org/1999/xlink">
    <!-- Generator: Sketch 55.1 (78136) - https://sketchapp.com -->
    <title>setup-system</title>
    <desc>Created with Sketch.</desc>
    <g id="20190917-投放包暂停（视觉）" stroke="none" stroke-width="1" fill="none" fill-rule="evenodd">
        <g id="ocpc投放包管理3" transform="translate(-924.000000, -1252.000000)" fill="#333333" fill-rule="nonzero">
            <g id="编组-2" transform="translate(646.000000, 1252.000000)">
                <path d="M299.677078,5.17942502 L298.964763,5.89099857 C298.500545,6.35708089 297.835938,6.60692252 297.16795,6.60692252 C296.788318,6.60692252 296.414445,6.52588072 296.07974,6.35978717 L294.512977,5.71468148 C293.536527,5.38153851 292.807634,4.37272479 292.807634,3.33949771 L292.807634,2.33337161 L291.192189,2.33337161 L291.192189,3.33949771 C291.192189,4.37320502 290.465657,5.38208182 289.487572,5.71494487 L287.91911,6.35991944 C287.584335,6.52601872 287.210481,6.60727669 286.831164,6.60727669 C286.164108,6.60727669 285.500961,6.35717928 285.039421,5.89412065 L284.32322,5.18046381 L283.180942,6.32242705 L283.892186,7.03504079 C284.625389,7.76660091 284.821023,8.99236514 284.360454,9.91827472 L283.715345,11.4873152 C283.38212,12.4649445 282.374062,13.193004 281.33833,13.1930034 L280.334214,13.1919519 L280.334214,14.8084128 L281.341453,14.8084142 C282.374854,14.8100965 283.380737,15.537164 283.71314,16.5134211 L284.360585,18.0828006 C284.818809,19.0090198 284.624394,20.2373235 283.89225,20.9661354 L283.178499,21.6783827 L284.323015,22.8215712 L285.036445,22.1090296 C285.499666,21.6453104 286.162273,21.3955566 286.827444,21.3955566 C287.207885,21.3955566 287.582485,21.4773995 287.917623,21.6450634 L289.487886,22.2894672 C290.46566,22.6232707 291.192189,23.6310886 291.192189,24.6649294 L291.192189,25.6666284 L292.807811,25.6666284 L292.807811,24.6649294 C292.807811,23.6314683 293.536449,22.6236899 294.512612,22.2895708 L296.081657,21.644702 C296.417193,21.4773032 296.792185,21.3955566 297.173088,21.3955566 C297.838469,21.3955566 298.501027,21.6443218 298.969019,22.110424 L299.677311,22.8221931 L300.821462,21.6783572 L300.106303,20.9646893 C299.376866,20.2345315 299.181978,19.007851 299.640383,18.0827059 L300.286089,16.5122363 C300.620877,15.5367425 301.62994,14.809298 302.661688,14.809298 L303.665786,14.809298 L303.665786,13.1915874 L302.661688,13.1915874 C301.628094,13.1915874 300.620672,12.4640047 300.285981,11.4873235 L299.640519,9.91744772 C299.182131,8.99351246 299.376927,7.77000593 300.107486,7.03501404 L300.821339,6.32250109 L299.677078,5.17942502 Z M295.141848,2.15445637 L295.141848,3.33949771 C295.141848,3.3708682 295.234282,3.49621228 295.263516,3.50527214 L295.362405,3.54087267 L297.013485,4.2206954 L297.120647,4.27132556 C297.241171,4.27355091 297.3062,4.24910513 297.312703,4.24258133 L298.154561,3.40159536 C298.563439,2.99438447 299.111441,2.77347841 299.677344,2.77347841 C300.243602,2.77347841 300.791621,2.99453602 301.200677,3.4026746 L302.596825,4.797378 C303.439495,5.63699874 303.439495,7.00540082 302.597547,7.84701038 L301.760046,8.68292665 C301.738492,8.7046118 301.716627,8.85254039 301.729849,8.87717007 L301.78096,8.98534477 L302.460701,10.6385943 L302.495191,10.7341039 C302.505267,10.7663324 302.630002,10.8582158 302.661688,10.8582158 L303.846851,10.8582158 C305.034375,10.8582158 306,11.8250075 306,13.0126721 L306,14.9883904 C306,16.1756123 305.034109,17.1426696 303.846851,17.1426696 L302.661688,17.1426696 C302.630883,17.1426696 302.504667,17.2354622 302.495022,17.2662612 L302.460701,17.3612286 L301.78096,19.0144781 L301.730274,19.1218612 C301.71658,19.147415 301.738581,19.2964674 301.756684,19.3145904 L302.597776,20.1539272 C303.4394,20.9944388 303.4394,22.3620466 302.598208,23.2021265 L301.200177,24.5997725 C300.791621,25.0074119 300.243602,25.2284695 299.677344,25.2284695 C299.11146,25.2284695 298.563471,25.0077728 298.150864,24.5968313 L297.317859,23.7597371 C297.311793,23.753695 297.245829,23.7289283 297.173088,23.7289283 C297.151596,23.7289283 297.099168,23.7471729 297.015805,23.7836623 L295.361713,24.463485 L295.265604,24.4981514 C295.234505,24.5078532 295.142025,24.6332444 295.142025,24.6649294 L295.142025,25.846429 C295.142025,27.0325427 294.1737,28 292.987991,28 L291.014135,28 C289.825237,28 288.857975,27.0336047 288.857975,25.846429 L288.857975,24.6649294 C288.857975,24.6318469 288.766946,24.5080666 288.73661,24.4986319 L288.640095,24.4638956 L286.983524,23.7840728 L286.869552,23.7299295 C286.756973,23.7289283 286.692854,23.7530964 286.687211,23.7587448 L285.845517,24.599392 C285.436982,25.0073861 284.888851,25.2284695 284.322656,25.2284695 C283.756029,25.2284695 283.207571,25.0070479 282.800438,24.5993254 L281.398623,23.1991249 C280.564753,22.3594072 280.564753,20.9972553 281.402363,20.1537881 L282.244159,19.3137497 C282.26242,19.2955726 282.284261,19.1472769 282.269925,19.1204225 L282.220632,19.0159398 L281.538588,17.3626902 L281.502333,17.2619196 C281.493311,17.2326937 281.370203,17.1418357 281.339552,17.1417842 L280.155274,17.1417842 C278.967224,17.1417842 278,16.174112 278,14.9862654 L278,13.0128492 C278,11.8246683 278.967381,10.8583929 280.156497,10.8583935 L281.339552,10.8596324 C281.371526,10.8596324 281.495418,10.768314 281.504831,10.7379416 L281.540182,10.6396623 L282.220278,8.98552729 L282.272184,8.87587186 C282.285165,8.85177605 282.263735,8.70702233 282.241485,8.68481847 L281.40397,7.84569345 C280.563675,7.00573629 280.563675,5.6380665 281.403917,4.798936 L282.799743,3.40349435 C283.2079,2.99512476 283.756223,2.77365549 284.322656,2.77365549 C284.888927,2.77365549 285.437101,2.99485796 285.844593,3.40181155 L286.690133,4.2443561 C286.695583,4.24982452 286.759434,4.27390508 286.831164,4.27390508 C286.852535,4.27390508 286.904187,4.25610148 286.986118,4.22049426 L288.639323,3.54067153 L288.738694,3.50497212 C288.767075,3.49620359 288.857975,3.37253968 288.857975,3.33949771 L288.857975,2.15445637 C288.857975,0.967756477 289.826001,0 291.014135,0 L292.987991,0 C294.173858,0 295.141848,0.968677799 295.141848,2.15445637 Z M292.005282,18.6665136 C289.426981,18.6665136 287.336855,16.5771415 287.336855,13.9997703 C287.336855,11.4223992 289.426981,9.33302713 292.005282,9.33302713 C294.583583,9.33302713 296.673709,11.4223992 296.673709,13.9997703 C296.673709,16.5771415 294.583583,18.6665136 292.005282,18.6665136 Z M292.005282,16.333142 C293.294432,16.333142 294.339495,15.2884559 294.339495,13.9997703 C294.339495,12.7110848 293.294432,11.6663987 292.005282,11.6663987 C290.716131,11.6663987 289.671068,12.7110848 289.671068,13.9997703 C289.671068,15.2884559 290.716131,16.333142 292.005282,16.333142 Z" id="setup-system"></path>
            </g>
        </g>
    </g>
</svg>
