<!-- Generated by IcoMoon.io -->
<svg version="1.1" xmlns="http://www.w3.org/2000/svg" viewBox="0 0 32 32">
<title>angle-double-right</title>
<path d="M14.391 29.724c-0.521 0.521-0.521 1.365 0 1.886s1.365 0.521 1.886 0l14.667-14.667c0.521-0.521 0.521-1.365 0-1.886l-14.667-14.667c-0.521-0.521-1.365-0.521-1.886 0s-0.521 1.365 0 1.886l13.724 13.724-13.724 13.724z"></path>
<path d="M14.781 16l-13.724 13.724c-0.521 0.521-0.521 1.365 0 1.886s1.365 0.521 1.886 0l14.667-14.667c0.521-0.521 0.521-1.365 0-1.886l-14.667-14.667c-0.521-0.521-1.365-0.521-1.886 0s-0.521 1.365 0 1.886l13.724 13.724z"></path>
</svg>
