<!-- Generated by IcoMoon.io -->
<svg version="1.1" xmlns="http://www.w3.org/2000/svg" viewBox="0 0 32 32">
<title>hot</title>
<path fill="#444" d="M29.575 9.661h-27.151c-0.701 0-1.27 0.428-1.27 0.957v10.764c0 0.528 0.569 0.957 1.27 0.957h27.151c0.701 0 1.27-0.428 1.27-0.957v-10.764c0-0.529-0.569-0.957-1.27-0.957zM11.877 20.333h-1.135v-3.587h-3.867v3.587h-1.1v-8.080h1.1v3.429h3.867v-3.429h1.135v8.080zM16.666 20.452c-2.27-0.132-3.453-1.498-3.548-4.099 0.118-2.68 1.313-4.086 3.583-4.218 2.199 0.158 3.381 1.564 3.547 4.218-0.119 2.601-1.312 3.967-3.582 4.099zM27.024 13.278h-2.483v7.055h-1.1v-7.055h-2.519v-1.025h6.101v1.025z"></path>
<path fill="#444" d="M16.666 13.199c-1.49 0.132-2.283 1.182-2.377 3.153 0.071 1.945 0.852 2.982 2.341 3.114 1.513-0.079 2.306-1.116 2.377-3.114-0.071-1.971-0.851-3.022-2.341-3.153z"></path>
</svg>
