<?xml version="1.0" encoding="UTF-8"?>
<svg viewBox="0 0 48 48" version="1.1" xmlns="http://www.w3.org/2000/svg" xmlns:xlink="http://www.w3.org/1999/xlink">
    <!-- Generator: Sketch 52.1 (67048) - http://www.bohemiancoding.com/sketch -->
    <title>ocpc报告</title>
    <desc>Created with Sketch.</desc>
    <g id="Page-1" stroke="none" stroke-width="1" fill="none" fill-rule="evenodd">
        <g id="推广报告" transform="translate(-243.000000, -400.000000)" fill="#333333" fill-rule="nonzero">
            <g id="Group-13" transform="translate(243.000000, 105.000000)">
                <g id="Icon/Sidebar/pz/manage-keyword-Copy-9" transform="translate(0.000000, 295.000000)">
                    <path d="M35.3681878,22 L12.1573669,22 L23.0554952,45.0288757 C23.527982,46.0272894 23.1016341,47.2196899 22.1032203,47.6921768 C21.1048066,48.1646636 19.9124061,47.7383157 19.4399193,46.7399019 L0.488489321,6.69249035 C-0.653016193,4.40831914 0.272360882,1.63077715 2.55591685,0.488418938 C3.19797653,0.167225956 3.90599725,2.44249065e-14 4.62388981,2.44249065e-14 L43.3543364,-3.55271368e-15 C45.9079503,-3.55271368e-15 47.9776515,2.07075295 47.9776515,4.62464826 C47.9776515,5.34245672 47.8106089,6.05042007 47.4897368,6.69249035 L34.4275119,32.8302161 C33.9337342,33.8182734 32.7324695,34.2189662 31.7444121,33.7251885 C30.7563548,33.2314107 30.355662,32.030146 30.8494398,31.0420887 L35.3681878,22 Z M37.3671719,18 L43.9116647,4.90436295 C43.9550542,4.81753988 43.9776515,4.72176734 43.9776515,4.62464826 C43.9776515,4.27943716 43.6983563,4 43.3543364,4 L4.62388981,4 C4.52726874,4 4.43196181,4.02251035 4.34549836,4.06576404 C4.03733177,4.21992564 3.91220572,4.59549455 4.08531337,4.94291354 L10.2644167,18 L37.3671719,18 Z M28,41 C26.8954305,41 26,40.1045695 26,39 C26,37.8954305 26.8954305,37 28,37 L45.9776515,37 C47.082221,37 47.9776515,37.8954305 47.9776515,39 C47.9776515,40.1045695 47.082221,41 45.9776515,41 L28,41 Z M28,48 C26.8954305,48 26,47.1045695 26,46 C26,44.8954305 26.8954305,44 28,44 L45.9776515,44 C47.082221,44 47.9776515,44.8954305 47.9776515,46 C47.9776515,47.1045695 47.082221,48 45.9776515,48 L28,48 Z" id="Combined-Shape"></path>
                </g>
            </g>
        </g>
    </g>
</svg>