<?xml version="1.0" encoding="UTF-8"?>
<svg viewBox="0 0 48 48" version="1.1" xmlns="http://www.w3.org/2000/svg" xmlns:xlink="http://www.w3.org/1999/xlink">
    <!-- Generator: Sketch 54.1 (76490) - https://sketchapp.com -->
    <title>48</title>
    <desc>Created with Sketch.</desc>
    <g id="Page-1" stroke="none" stroke-width="1" fill="none" fill-rule="evenodd">
        <g id="DLS图标" transform="translate(-966.000000, -139.000000)" fill="#000000" fill-rule="nonzero">
            <g id="chevron-down" transform="translate(990.000000, 163.000000) scale(1, -1) translate(-990.000000, -163.000000) translate(966.000000, 140.000000)">
                <path d="M3.41421356,20.5857864 C2.63316498,19.8047379 1.36683502,19.8047379 0.585786438,20.5857864 C-0.195262146,21.366835 -0.195262146,22.633165 0.585786438,23.4142136 L22.5857864,45.4142136 C23.366835,46.1952621 24.633165,46.1952621 25.4142136,45.4142136 L47.4142136,23.4142136 C48.1952621,22.633165 48.1952621,21.366835 47.4142136,20.5857864 C46.633165,19.8047379 45.366835,19.8047379 44.5857864,20.5857864 L24,41.1715729 L3.41421356,20.5857864 Z" id="Path-131"></path>
                <path d="M24,21.1715729 L3.41421356,0.585786438 C2.63316498,-0.195262146 1.36683502,-0.195262146 0.585786438,0.585786438 C-0.195262146,1.36683502 -0.195262146,2.63316498 0.585786438,3.41421356 L22.5857864,25.4142136 C23.366835,26.1952621 24.633165,26.1952621 25.4142136,25.4142136 L47.4142136,3.41421356 C48.1952621,2.63316498 48.1952621,1.36683502 47.4142136,0.585786438 C46.633165,-0.195262146 45.366835,-0.195262146 44.5857864,0.585786438 L24,21.1715729 Z" id="Path-131"></path>
            </g>
        </g>
    </g>
</svg>
