<?xml version="1.0" encoding="UTF-8"?>
<svg viewBox="0 0 33 32" version="1.1" xmlns="http://www.w3.org/2000/svg" xmlns:xlink="http://www.w3.org/1999/xlink">
    <!-- Generator: Sketch 59.1 (86144) - https://sketch.com -->
    <title>icon-exit</title>
    <desc>Created with Sketch.</desc>
    <g id="-" stroke="none" stroke-width="1" fill="none" fill-rule="evenodd">
        <g id="icon-24x24" transform="translate(-146.000000, -19.000000)">
            <g id="icon-exit" transform="translate(144.000000, 16.000000)">
                <rect id="矩形" fill="#D8D8D8" opacity="0" x="0" y="0" width="36" height="36"></rect>
                <path d="M8.9212552,5.79738803 C4.91090939,8.78696605 2.5,13.4766747 2.5,18.5635107 C2.5,27.3664683 9.66491441,34.5 18.5,34.5 C27.3350856,34.5 34.5,27.3664683 34.5,18.5635107 C34.5,13.528324 32.1380557,8.8807454 28.1959686,5.88561072 C27.5363376,5.38443365 26.5953167,5.51288595 26.0941396,6.17251694 C25.5929626,6.83214794 25.7214149,7.7731688 26.3810459,8.27434586 C29.5848662,10.7085572 31.5,14.4769505 31.5,18.5635107 C31.5,25.7066589 25.6811722,31.5 18.5,31.5 C11.3188278,31.5 5.5,25.7066589 5.5,18.5635107 C5.5,14.435071 7.45492613,10.6323424 10.7142688,8.20261197 C11.3784531,7.70748493 11.515501,6.76767745 11.020374,6.1034932 C10.5252469,5.43930894 9.58543945,5.30226099 8.9212552,5.79738803 Z" id="路径" fill="#000000" fill-rule="nonzero"></path>
                <rect id="矩形" fill="#000000" x="17" y="3" width="3" height="12" rx="1.5"></rect>
            </g>
        </g>
    </g>
</svg>
