<!-- Generated by IcoMoon.io -->
<svg version="1.1" xmlns="http://www.w3.org/2000/svg" viewBox="0 0 55 32">
<title>double-eleven</title>
<path fill="#444" d="M48.499 2.96h-0.907c-0.128 0-0.263 0.104-0.302 0.232l-8.653 28.576c-0.039 0.128 0.034 0.232 0.163 0.232h0.907c0.128 0 0.263-0.104 0.302-0.232l8.653-28.576c0.038-0.128-0.034-0.232-0.163-0.232z"></path>
<path fill="#444" d="M43.415 9.412h0.907c0.128 0 0.263-0.104 0.302-0.232l1.099-3.647c0.039-0.128-0.034-0.232-0.163-0.232h-0.907c-0.128 0-0.263 0.104-0.302 0.232l-1.099 3.647c-0.038 0.128 0.034 0.232 0.163 0.232z"></path>
<path fill="#444" d="M50.727 2.96h-0.907c-0.128 0-0.263 0.104-0.302 0.232l-8.653 28.576c-0.039 0.128 0.034 0.232 0.163 0.232h0.907c0.128 0 0.263-0.104 0.302-0.232l8.653-28.576c0.038-0.128-0.034-0.232-0.163-0.232z"></path>
<path fill="#444" d="M52.955 2.96h-0.907c-0.128 0-0.263 0.104-0.302 0.232l-8.653 28.576c-0.038 0.128 0.034 0.232 0.163 0.232h0.907c0.128 0 0.264-0.104 0.302-0.232l8.653-28.576c0.039-0.128-0.034-0.232-0.163-0.232z"></path>
<path fill="#444" d="M38.814 0.032h-0.907c-0.128 0-0.263 0.104-0.302 0.232l-7.755 25.792c-0.039 0.128 0.034 0.232 0.163 0.232h0.907c0.128 0 0.263-0.104 0.302-0.232l7.755-25.792c0.038-0.128-0.034-0.232-0.163-0.232z"></path>
<path fill="#444" d="M33.73 6.484h0.907c0.128 0 0.263-0.104 0.302-0.232l1.099-3.647c0.039-0.128-0.034-0.232-0.163-0.232h-0.907c-0.128 0-0.264 0.104-0.302 0.232l-1.099 3.647c-0.039 0.128 0.034 0.232 0.162 0.232z"></path>
<path fill="#444" d="M41.042 0.032h-0.907c-0.128 0-0.263 0.104-0.302 0.232l-7.755 25.792c-0.039 0.128 0.034 0.232 0.163 0.232h0.907c0.128 0 0.263-0.104 0.302-0.232l7.755-25.792c0.038-0.128-0.034-0.232-0.163-0.232z"></path>
<path fill="#444" d="M43.27 0.032h-0.907c-0.128 0-0.263 0.104-0.302 0.232l-7.755 25.792c-0.038 0.128 0.034 0.232 0.163 0.232h0.907c0.128 0 0.263-0.104 0.302-0.232l7.755-25.792c0.038-0.128-0.034-0.232-0.163-0.232z"></path>
<path fill="#444" d="M30.497 4.705h-11.225l-1.904 3.608h7.135l-1.803 3.417-1.011-2.436h-3.745l2.66 6.407-5.465 10.355h4.090l3.175-6.017 2.498 6.017h3.745l-4.146-9.989z"></path>
<path fill="#444" d="M12.51 15.563l5.73-10.857h-13.97l1.498 3.608h6.636l-1.621 3.071-0.863-2.090h-3.745l2.509 6.067-5.645 10.696h3.932l3.44-6.519 2.696 6.519 2.096-3.972z"></path>
</svg>
