<?xml version="1.0" encoding="UTF-8"?>
<svg viewBox="0 0 34 34" version="1.1" xmlns="http://www.w3.org/2000/svg" xmlns:xlink="http://www.w3.org/1999/xlink">
    <!-- Generator: Sketch 59.1 (86144) - https://sketch.com -->
    <title>icon</title>
    <desc>Created with Sketch.</desc>
    <g id="-" stroke="none" stroke-width="1" fill="none" fill-rule="evenodd">
        <g id="icon-24x24" transform="translate(-13.000000, -17.000000)">
            <g id="icon" transform="translate(12.000000, 16.000000)">
                <rect id="矩形" fill="#D8D8D8" opacity="0" x="0" y="0" width="36" height="36"></rect>
                <path d="M31.5,15 L31.5,27 C31.5,29.4852814 29.4852814,31.5 27,31.5 L9,31.5 C6.51471863,31.5 4.5,29.4852814 4.5,27 L4.5,9 C4.5,6.51471863 6.51471863,4.5 9,4.5 L21,4.5 C21.8284271,4.5 22.5,3.82842712 22.5,3 C22.5,2.17157288 21.8284271,1.5 21,1.5 L9,1.5 C4.85786438,1.5 1.5,4.85786438 1.5,9 L1.5,27 C1.5,31.1421356 4.85786438,34.5 9,34.5 L27,34.5 C31.1421356,34.5 34.5,31.1421356 34.5,27 L34.5,15 C34.5,14.1715729 33.8284271,13.5 33,13.5 C32.1715729,13.5 31.5,14.1715729 31.5,15 Z" id="路径" fill="#000000" fill-rule="nonzero"></path>
                <path d="M10.5,10.5 L36,10.5 C36.8284271,10.5 37.5,11.1715729 37.5,12 C37.5,12.8284271 36.8284271,13.5 36,13.5 L10.5,13.5 C9.67157288,13.5 9,12.8284271 9,12 C9,11.1715729 9.67157288,10.5 10.5,10.5 Z" id="矩形" fill="#000000" transform="translate(23.250000, 12.000000) rotate(-45.000000) translate(-23.250000, -12.000000) "></path>
            </g>
        </g>
    </g>
</svg>
